<?xml version="1.0" standalone="no"?>
<!DOCTYPE svg PUBLIC "-//W3C//DTD SVG 20010904//EN" "http://www.w3.org/TR/2001/REC-SVG-20010904/DTD/svg10.dtd">
<!-- Created using Karbon, part of Calligra: http://www.calligra.org/karbon -->
<svg xmlns="http://www.w3.org/2000/svg" xmlns:xlink="http://www.w3.org/1999/xlink" width="38.4pt" height="38.4pt">
<defs/>
<g id="layer0">
  <rect id="shape0" transform="" fill="#1b3d2a" width="38.40000000000pt" height="38.40000000000pt" rx="6.40000000000pt" ry="6.40000000000pt"/>
  <rect id="shape1" transform="translate(2, 2)" fill="none" stroke="#2d6644" stroke-width="1.00000000000" stroke-linecap="butt" stroke-linejoin="miter" stroke-miterlimit="2.00000000000" width="35.20000000000pt" height="35.20000000000pt" rx="4.80000000000pt" ry="4.80000000000pt"/>
  <path id="shape2" transform="translate(10, 10)" fill="none" stroke="#b87333" stroke-width="2.00000000000" stroke-linecap="round" stroke-linejoin="round" d="M7 6L7 0L0 0"/>
  <path id="shape3" transform="translate(31, 10)" fill="none" stroke="#b87333" stroke-width="2.00000000000" stroke-linecap="round" stroke-linejoin="round" d="M0 6L0 0L7 0"/>
  <path id="shape4" transform="translate(4, 21.5)" fill="none" stroke="#b87333" stroke-width="1.80000000000" stroke-linecap="round" stroke-linejoin="miter" stroke-miterlimit="2.00000000000" d="M9 0L0 0"/>
  <path id="shape5" transform="translate(4, 28.75)" fill="none" stroke="#b87333" stroke-width="1.80000000000" stroke-linecap="round" stroke-linejoin="miter" stroke-miterlimit="2.00000000000" d="M9 0L2 0L2 8L0 8"/>
  <path id="shape6" transform="translate(35, 21.5)" fill="none" stroke="#b87333" stroke-width="1.80000000000" stroke-linecap="round" stroke-linejoin="miter" stroke-miterlimit="2.00000000000" d="M0 0L9 0"/>
  <path id="shape7" transform="translate(35, 28.75)" fill="none" stroke="#b87333" stroke-width="1.80000000000" stroke-linecap="round" stroke-linejoin="miter" stroke-miterlimit="2.00000000000" d="M0 0L7 0L7 8L9 8"/>
  <rect id="shape8" transform="translate(13, 16)" fill="#243d2e" stroke="#b87333" stroke-width="1.80000000000" stroke-linecap="butt" stroke-linejoin="miter" stroke-miterlimit="2.00000000000" width="17.60000000000pt" height="16.00000000000pt" rx="2.40000000000pt" ry="2.40000000000pt"/>
  <path id="shape9" transform="translate(13, 16)" fill="none" stroke="#b87333" stroke-width="1.50000000000" stroke-linecap="butt" stroke-linejoin="miter" stroke-miterlimit="2.00000000000" d="M0 4C0 1.79086 1.79086 0 4 0"/>
  <rect id="shape10" transform="translate(9, 19)" fill="#b87333" width="3.20000000000pt" height="3.20000000000pt" rx="0.80000000000pt" ry="0.80000000000pt"/>
  <rect id="shape11" transform="translate(9, 27)" fill="#b87333" width="3.20000000000pt" height="3.20000000000pt" rx="0.80000000000pt" ry="0.80000000000pt"/>
  <rect id="shape12" transform="translate(35, 19)" fill="#b87333" width="3.20000000000pt" height="3.20000000000pt" rx="0.80000000000pt" ry="0.80000000000pt"/>
  <rect id="shape13" transform="translate(35, 27)" fill="#b87333" width="3.20000000000pt" height="3.20000000000pt" rx="0.80000000000pt" ry="0.80000000000pt"/>
  <circle id="shape14" transform="translate(16, 11)" r="2.40000000000pt" cx="2.40000000000pt" cy="2.40000000000pt" fill="#00e676"/>
  <circle id="shape15" transform="translate(26, 11)" r="2.40000000000pt" cx="2.40000000000pt" cy="2.40000000000pt" fill="#00e676"/>
  <circle id="shape16" transform="translate(2.5, 2.5)" r="2.00000000000pt" cx="2.00000000000pt" cy="2.00000000000pt" fill="#1b3d2a" stroke="#4a7c59" stroke-width="1.00000000000" stroke-linecap="butt" stroke-linejoin="miter" stroke-miterlimit="2.00000000000"/>
  <circle id="shape17" transform="translate(4, 4)" r="0.80000000000pt" cx="0.80000000000pt" cy="0.80000000000pt" fill="#b87333"/>
  <circle id="shape18" transform="translate(40.5, 2.5)" r="2.00000000000pt" cx="2.00000000000pt" cy="2.00000000000pt" fill="#1b3d2a" stroke="#4a7c59" stroke-width="1.00000000000" stroke-linecap="butt" stroke-linejoin="miter" stroke-miterlimit="2.00000000000"/>
  <circle id="shape19" transform="translate(42, 4)" r="0.80000000000pt" cx="0.80000000000pt" cy="0.80000000000pt" fill="#b87333"/>
  <circle id="shape20" transform="translate(2.5, 40.5)" r="2.00000000000pt" cx="2.00000000000pt" cy="2.00000000000pt" fill="#1b3d2a" stroke="#4a7c59" stroke-width="1.00000000000" stroke-linecap="butt" stroke-linejoin="miter" stroke-miterlimit="2.00000000000"/>
  <circle id="shape21" transform="translate(4, 42)" r="0.80000000000pt" cx="0.80000000000pt" cy="0.80000000000pt" fill="#b87333"/>
  <circle id="shape22" transform="translate(40.5, 40.5)" r="2.00000000000pt" cx="2.00000000000pt" cy="2.00000000000pt" fill="#1b3d2a" stroke="#4a7c59" stroke-width="1.00000000000" stroke-linecap="butt" stroke-linejoin="miter" stroke-miterlimit="2.00000000000"/>
  <circle id="shape23" transform="translate(42, 42)" r="0.80000000000pt" cx="0.80000000000pt" cy="0.80000000000pt" fill="#b87333"/>
 </g>
</svg>
